<svg width="973" height="378" viewBox="0 0 973 378" fill="none" xmlns="http://www.w3.org/2000/svg">
<path d="M457.5 232.5L409.5 213C403.441 191.933 398.003 165.731 399.229 152.002C404 98.5493 455.407 95.5691 486.648 102.995L452.458 143.568C449.01 173.741 473.815 179.379 486.648 178.427L524.574 134.996C553.075 205.856 491.977 228.69 457.5 232.5Z" fill="#033051"/>
<path d="M329.101 141.5H271.601L346.101 255.5L268.601 377L329.101 378L396.601 280.5L466.101 378H493.601H528.101L442.601 255.5L478 201L436.5 174L396.601 231.5L329.101 141.5Z" fill="#033051"/>
<path d="M443.601 376.5H353.101L399.101 310L443.601 376.5ZM392.601 346V361H405.601V346H392.601Z" fill="#033051"/>
<path d="M598.152 378V149H552.46C552.227 225.333 551.902 378 552.46 378H598.152Z" fill="#033051"/>
<path d="M718.751 378H638.83V152.463H719.357C742.062 152.463 761.588 157.004 777.936 166.086C794.284 175.067 806.847 187.984 815.626 204.836C824.507 221.587 828.947 241.669 828.947 265.08C828.947 288.592 824.507 308.775 815.626 325.627C806.847 342.479 794.233 355.446 777.785 364.528C761.336 373.509 741.658 378 718.751 378ZM686.359 337.131H716.632C737.925 337.131 754.07 331.429 765.07 320.026C776.069 308.623 781.569 290.308 781.569 265.08C781.569 240.054 776.069 221.84 765.07 210.437C754.07 199.034 737.925 193.332 716.632 193.332H686.359V337.131Z" fill="#043052"/>
<path d="M912.152 378V149H866.46C866.227 225.333 865.902 378 866.46 378H912.152Z" fill="#033051"/>
<path d="M234 378V149H188.308C188.076 225.333 187.75 378 188.308 378H234Z" fill="#033051"/>
<path d="M152.5 107V173.5H47C37.606 167.559 49.9552 132.791 57.3486 115.338C26.3273 144.721 19.0643 170.392 19.2695 177.968L20.3857 200.673C20.4564 202.111 21.3028 203.387 22.5537 204.1C42.6852 215.568 32.2947 231.537 22.002 236.766C22.1123 240.65 22.469 247.589 22.3105 247.932C22.293 247.934 22.2862 247.937 22.29 247.94C22.2977 247.947 22.3045 247.945 22.3105 247.932C23.1637 247.813 48.6628 249.248 61.6504 248.95L61.3623 237.775C38.3368 217.116 49.842 205.657 66 206.974V207H147.5V262.5H72V376.5H2L0 107H152.5Z" fill="#033051"/>
</svg>
