<?xml version="1.0" encoding="UTF-8"?>
<svg xmlns="http://www.w3.org/2000/svg" xmlns:xlink="http://www.w3.org/1999/xlink" width="142px" height="55px" viewBox="0 0 141 55" version="1.1">
<g id="surface1">
<path style=" stroke:none;fill-rule:nonzero;fill:rgb(1.176471%,18.82353%,31.764707%);fill-opacity:1;" d="M 66.296875 33.828125 L 59.339844 30.992188 C 58.464844 27.925781 57.675781 24.113281 57.851562 22.117188 C 58.542969 14.339844 65.996094 13.90625 70.519531 14.984375 L 65.566406 20.890625 C 65.066406 25.28125 68.660156 26.101562 70.519531 25.960938 L 76.015625 19.640625 C 80.148438 29.953125 71.292969 33.273438 66.296875 33.828125 Z M 66.296875 33.828125 "/>
<path style=" stroke:none;fill-rule:nonzero;fill:rgb(1.176471%,18.82353%,31.764707%);fill-opacity:1;" d="M 47.691406 20.589844 L 39.359375 20.589844 L 50.15625 37.175781 L 38.921875 54.855469 L 47.691406 55 L 57.472656 40.8125 L 67.542969 55 L 76.527344 55 L 64.136719 37.175781 L 69.269531 29.246094 L 63.253906 25.316406 L 57.472656 33.683594 Z M 47.691406 20.589844 "/>
<path style=" stroke:none;fill-rule:nonzero;fill:rgb(1.176471%,18.82353%,31.764707%);fill-opacity:1;" d="M 64.285156 54.78125 L 51.167969 54.78125 L 57.835938 45.105469 Z M 56.894531 50.34375 L 56.894531 52.527344 L 58.777344 52.527344 L 58.777344 50.34375 Z M 56.894531 50.34375 "/>
<path style=" stroke:none;fill-rule:nonzero;fill:rgb(1.176471%,18.82353%,31.764707%);fill-opacity:1;" d="M 86.679688 55 L 86.679688 21.679688 L 80.058594 21.679688 C 80.023438 32.785156 79.976562 55 80.058594 55 Z M 86.679688 55 "/>
<path style=" stroke:none;fill-rule:nonzero;fill:rgb(1.568628%,18.82353%,32.156864%);fill-opacity:1;" d="M 104.15625 55 L 92.574219 55 L 92.574219 22.183594 L 104.242188 22.183594 C 107.535156 22.183594 110.363281 22.84375 112.734375 24.164062 C 115.101562 25.472656 116.921875 27.351562 118.195312 29.804688 C 119.480469 32.242188 120.125 35.164062 120.125 38.570312 C 120.125 41.992188 119.480469 44.925781 118.195312 47.378906 C 116.921875 49.832031 115.09375 51.71875 112.710938 53.039062 C 110.328125 54.347656 107.476562 55 104.15625 55 Z M 99.460938 49.054688 L 103.847656 49.054688 C 106.933594 49.054688 109.273438 48.222656 110.867188 46.566406 C 112.460938 44.90625 113.257812 42.242188 113.257812 38.570312 C 113.257812 34.929688 112.460938 32.277344 110.867188 30.617188 C 109.273438 28.960938 106.933594 28.128906 103.847656 28.128906 L 99.460938 28.128906 Z M 99.460938 49.054688 "/>
<path style=" stroke:none;fill-rule:nonzero;fill:rgb(1.176471%,18.82353%,31.764707%);fill-opacity:1;" d="M 132.183594 55 L 132.183594 21.679688 L 125.5625 21.679688 C 125.527344 32.785156 125.480469 55 125.5625 55 Z M 132.183594 55 "/>
<path style=" stroke:none;fill-rule:nonzero;fill:rgb(1.176471%,18.82353%,31.764707%);fill-opacity:1;" d="M 33.910156 55 L 33.910156 21.679688 L 27.289062 21.679688 C 27.253906 32.785156 27.207031 55 27.289062 55 Z M 33.910156 55 "/>
<path style=" stroke:none;fill-rule:nonzero;fill:rgb(1.176471%,18.82353%,31.764707%);fill-opacity:1;" d="M 22.097656 15.570312 L 22.097656 25.246094 L 6.8125 25.246094 C 5.449219 24.378906 7.238281 19.320312 8.308594 16.78125 C 3.816406 21.058594 2.761719 24.792969 2.792969 25.894531 L 2.953125 29.199219 C 2.964844 29.40625 3.085938 29.59375 3.269531 29.695312 C 6.1875 31.367188 4.679688 33.6875 3.1875 34.449219 C 3.203125 35.015625 3.257812 36.023438 3.234375 36.074219 C 3.230469 36.074219 3.230469 36.074219 3.230469 36.074219 C 3.230469 36.078125 3.230469 36.078125 3.234375 36.074219 C 3.355469 36.058594 7.050781 36.265625 8.933594 36.222656 L 8.890625 34.597656 C 5.554688 31.589844 7.222656 29.921875 9.5625 30.117188 L 21.375 30.117188 L 21.375 38.195312 L 10.433594 38.195312 L 10.433594 54.78125 L 0.289062 54.78125 L 0 15.570312 Z M 22.097656 15.570312 "/>
</g>
</svg>
