<?xml version="1.0" encoding="UTF-8"?>
<svg xmlns="http://www.w3.org/2000/svg" xmlns:xlink="http://www.w3.org/1999/xlink" width="180px" height="55px" viewBox="0 0 179 55" version="1.1">
<g id="surface1">
<path style=" stroke:none;fill-rule:nonzero;fill:rgb(1.176471%,18.82353%,31.764707%);fill-opacity:1;" d="M 89.695312 26.027344 L 80.285156 22.195312 C 79.097656 18.058594 78.03125 12.910156 78.273438 10.214844 C 79.207031 -0.285156 89.285156 -0.871094 95.410156 0.589844 L 88.707031 8.558594 C 88.03125 14.484375 92.894531 15.59375 95.410156 15.40625 L 102.847656 6.875 C 108.433594 20.792969 96.457031 25.277344 89.695312 26.027344 Z M 89.695312 26.027344 "/>
<path style=" stroke:none;fill-rule:nonzero;fill:rgb(1.176471%,18.82353%,31.764707%);fill-opacity:1;" d="M 64.523438 8.152344 L 53.25 8.152344 L 67.855469 30.542969 L 52.660156 54.410156 L 64.523438 54.605469 L 77.757812 35.457031 L 91.382812 54.605469 L 103.539062 54.605469 L 86.773438 30.542969 L 93.714844 19.839844 L 85.578125 14.535156 L 77.757812 25.832031 Z M 64.523438 8.152344 "/>
<path style=" stroke:none;fill-rule:nonzero;fill:rgb(1.176471%,18.82353%,31.764707%);fill-opacity:1;" d="M 86.972656 54.3125 L 69.226562 54.3125 L 78.246094 41.25 Z M 76.972656 48.320312 L 76.972656 51.269531 L 79.519531 51.269531 L 79.519531 48.320312 Z M 76.972656 48.320312 "/>
<path style=" stroke:none;fill-rule:nonzero;fill:rgb(1.176471%,18.82353%,31.764707%);fill-opacity:1;" d="M 117.273438 54.605469 L 117.273438 9.625 L 108.3125 9.625 C 108.269531 24.617188 108.203125 54.605469 108.3125 54.605469 Z M 117.273438 54.605469 "/>
<path style=" stroke:none;fill-rule:nonzero;fill:rgb(1.568628%,18.82353%,32.156864%);fill-opacity:1;" d="M 140.960938 55 L 125.292969 55 L 125.292969 10.699219 L 141.082031 10.699219 C 145.53125 10.699219 149.359375 11.589844 152.566406 13.375 C 155.769531 15.136719 158.234375 17.675781 159.953125 20.984375 C 161.695312 24.277344 162.566406 28.21875 162.566406 32.820312 C 162.566406 37.4375 161.695312 41.402344 159.953125 44.710938 C 158.234375 48.023438 155.761719 50.570312 152.535156 52.355469 C 149.3125 54.117188 145.453125 55 140.960938 55 Z M 134.609375 46.972656 L 140.546875 46.972656 C 144.71875 46.972656 147.886719 45.851562 150.042969 43.613281 C 152.199219 41.371094 153.277344 37.773438 153.277344 32.820312 C 153.277344 27.902344 152.199219 24.324219 150.042969 22.085938 C 147.886719 19.847656 144.71875 18.726562 140.546875 18.726562 L 134.609375 18.726562 Z M 134.609375 46.972656 "/>
<path style=" stroke:none;fill-rule:nonzero;fill:rgb(1.176471%,18.82353%,31.764707%);fill-opacity:1;" d="M 178.832031 54.605469 L 178.832031 9.625 L 169.875 9.625 C 169.828125 24.617188 169.765625 54.605469 169.875 54.605469 Z M 178.832031 54.605469 "/>
<path style=" stroke:none;fill-rule:nonzero;fill:rgb(1.176471%,18.82353%,31.764707%);fill-opacity:1;" d="M 45.878906 54.605469 L 45.878906 9.625 L 36.917969 9.625 C 36.875 24.617188 36.808594 54.605469 36.917969 54.605469 Z M 45.878906 54.605469 "/>
<path style=" stroke:none;fill-rule:nonzero;fill:rgb(1.176471%,18.82353%,31.764707%);fill-opacity:1;" d="M 29.898438 1.375 L 29.898438 14.4375 L 9.214844 14.4375 C 7.371094 13.269531 9.792969 6.441406 11.242188 3.011719 C 5.160156 8.785156 3.738281 13.828125 3.777344 15.316406 L 3.996094 19.773438 C 4.011719 20.058594 4.175781 20.308594 4.421875 20.449219 C 8.367188 22.699219 6.332031 25.835938 4.3125 26.863281 C 4.335938 27.628906 4.40625 28.992188 4.375 29.058594 C 4.371094 29.058594 4.371094 29.058594 4.371094 29.058594 C 4.371094 29.0625 4.371094 29.0625 4.375 29.058594 C 4.542969 29.035156 9.539062 29.316406 12.085938 29.257812 L 12.03125 27.0625 C 7.515625 23.003906 9.773438 20.753906 12.941406 21.011719 L 12.941406 21.019531 L 28.917969 21.019531 L 28.917969 31.917969 L 14.117188 31.917969 L 14.117188 54.3125 L 0.390625 54.3125 L 0 1.375 Z M 29.898438 1.375 "/>
</g>
</svg>
