<?xml version="1.0" encoding="UTF-8"?>
<svg xmlns="http://www.w3.org/2000/svg" xmlns:xlink="http://www.w3.org/1999/xlink" width="180px" height="70px" viewBox="0 0 180 70" version="1.1">
<g id="surface1">
<path style=" stroke:none;fill-rule:nonzero;fill:rgb(1.176471%,18.82353%,31.764707%);fill-opacity:1;" d="M 84.636719 43.054688 L 75.753906 39.445312 C 74.632812 35.542969 73.628906 30.691406 73.855469 28.148438 C 74.738281 18.25 84.246094 17.699219 90.027344 19.074219 L 83.703125 26.585938 C 83.066406 32.175781 87.652344 33.21875 90.027344 33.042969 L 97.042969 25 C 102.316406 38.121094 91.011719 42.351562 84.636719 43.054688 Z M 84.636719 43.054688 "/>
<path style=" stroke:none;fill-rule:nonzero;fill:rgb(1.176471%,18.82353%,31.764707%);fill-opacity:1;" d="M 60.882812 26.203125 L 50.246094 26.203125 L 64.027344 47.316406 L 49.691406 69.816406 L 60.882812 70 L 73.371094 51.945312 L 86.226562 70 L 97.695312 70 L 81.878906 47.316406 L 88.425781 37.222656 L 80.75 32.222656 L 73.371094 42.871094 Z M 60.882812 26.203125 "/>
<path style=" stroke:none;fill-rule:nonzero;fill:rgb(1.176471%,18.82353%,31.764707%);fill-opacity:1;" d="M 82.0625 69.722656 L 65.320312 69.722656 L 73.832031 57.40625 Z M 72.628906 64.074219 L 72.628906 66.851562 L 75.035156 66.851562 L 75.035156 64.074219 Z M 72.628906 64.074219 "/>
<path style=" stroke:none;fill-rule:nonzero;fill:rgb(1.176471%,18.82353%,31.764707%);fill-opacity:1;" d="M 110.65625 70 L 110.65625 27.59375 L 102.203125 27.59375 C 102.160156 41.726562 102.097656 70 102.203125 70 Z M 110.65625 70 "/>
<path style=" stroke:none;fill-rule:nonzero;fill:rgb(1.568628%,18.82353%,32.156864%);fill-opacity:1;" d="M 132.964844 70 L 118.179688 70 L 118.179688 28.234375 L 133.078125 28.234375 C 137.277344 28.234375 140.890625 29.074219 143.914062 30.757812 C 146.9375 32.417969 149.261719 34.8125 150.886719 37.933594 C 152.53125 41.035156 153.351562 44.753906 153.351562 49.089844 C 153.351562 53.441406 152.53125 57.179688 150.886719 60.300781 C 149.261719 63.421875 146.929688 65.824219 143.886719 67.503906 C 140.84375 69.167969 137.203125 70 132.964844 70 Z M 126.972656 62.433594 L 132.574219 62.433594 C 136.511719 62.433594 139.5 61.375 141.535156 59.265625 C 143.570312 57.152344 144.585938 53.761719 144.585938 49.089844 C 144.585938 44.453125 143.570312 41.082031 141.535156 38.96875 C 139.5 36.859375 136.511719 35.800781 132.574219 35.800781 L 126.972656 35.800781 Z M 126.972656 62.433594 "/>
<path style=" stroke:none;fill-rule:nonzero;fill:rgb(1.176471%,18.82353%,31.764707%);fill-opacity:1;" d="M 168.742188 70 L 168.742188 27.59375 L 160.289062 27.59375 C 160.246094 41.726562 160.1875 70 160.289062 70 Z M 168.742188 70 "/>
<path style=" stroke:none;fill-rule:nonzero;fill:rgb(1.176471%,18.82353%,31.764707%);fill-opacity:1;" d="M 43.289062 70 L 43.289062 27.59375 L 34.835938 27.59375 C 34.792969 41.726562 34.734375 70 34.835938 70 Z M 43.289062 70 "/>
<path style=" stroke:none;fill-rule:nonzero;fill:rgb(1.176471%,18.82353%,31.764707%);fill-opacity:1;" d="M 28.210938 19.816406 L 28.210938 32.128906 L 8.695312 32.128906 C 6.957031 31.03125 9.242188 24.589844 10.609375 21.359375 C 4.871094 26.800781 3.527344 31.554688 3.566406 32.957031 L 3.769531 37.160156 C 3.785156 37.429688 3.941406 37.664062 4.171875 37.796875 C 7.898438 39.921875 5.972656 42.878906 4.070312 43.84375 C 4.089844 44.566406 4.15625 45.851562 4.128906 45.914062 C 4.125 45.914062 4.121094 45.914062 4.125 45.914062 C 4.125 45.917969 4.125 45.914062 4.128906 45.914062 C 4.285156 45.890625 9.003906 46.15625 11.40625 46.101562 L 11.351562 44.03125 C 7.09375 40.207031 9.21875 38.085938 12.210938 38.328125 L 12.210938 38.332031 L 27.285156 38.332031 L 27.285156 48.609375 L 13.320312 48.609375 L 13.320312 69.722656 L 0.371094 69.722656 L 0 19.816406 Z M 28.210938 19.816406 "/>
</g>
</svg>
