<svg width="149" height="37" viewBox="0 0 149 37" fill="none" xmlns="http://www.w3.org/2000/svg">
<g clip-path="url(#clip0_53_624)">
<path d="M71.8306 7.83894C72.2769 3.45529 77.0847 3.21084 80.0066 3.81986L76.809 7.1473C76.4865 9.62172 78.8064 10.0842 80.0066 10.0061L83.5537 6.44428C86.1776 12.1648 81.1684 14.2276 77.9354 14.5887L77.783 14.6047L70.3945 23.9539L78.3909 34.0002H72.5923L66.0923 26.0041L59.7794 34.0002L54.1211 33.9181L61.3693 23.9539L54.4017 14.6047H59.7794L66.0923 21.9856L72.6391 12.8004C72.0723 11.0727 71.7161 8.96486 71.8306 7.83894Z" fill="#033051"/>
<path d="M70.488 33.877H62.0239L66.3261 28.4233L70.488 33.877ZM65.7182 31.3757V32.6059H66.934V31.3757H65.7182Z" fill="#033051"/>
<path d="M84.9423 34.0001V15.2197H80.6689C80.6472 21.4798 80.6168 34.0001 80.6689 34.0001H84.9423Z" fill="#033051"/>
<path d="M96.2213 33.9998H88.7466V15.5034H96.2779C98.4014 15.5034 100.228 15.8758 101.757 16.6206C103.285 17.3572 104.46 18.4165 105.282 19.7986C106.112 21.1723 106.527 22.8193 106.527 24.7392C106.527 26.6674 106.112 28.3227 105.282 29.7047C104.46 31.0867 103.281 32.1502 101.742 32.895C100.204 33.6315 98.3637 33.9998 96.2213 33.9998ZM93.1917 30.6481H96.0231C98.0145 30.6481 99.5245 30.1805 100.553 29.2454C101.582 28.3102 102.096 26.8082 102.096 24.7392C102.096 22.6868 101.582 21.1931 100.553 20.2579C99.5245 19.3227 98.0145 18.8551 96.0231 18.8551H93.1917V30.6481Z" fill="#043052"/>
<path d="M114.309 34.0001V15.2197H110.036C110.014 21.4798 109.983 34.0001 110.036 34.0001H114.309Z" fill="#033051"/>
<path d="M50.8847 34.0001V15.2197H46.6113C46.5896 21.4798 46.5591 34.0001 46.6113 34.0001H50.8847Z" fill="#033051"/>
<path d="M43.2626 11.7749V17.2286H33.3957C32.5171 16.7414 33.6721 13.89 34.3635 12.4587C31.4623 14.8684 30.783 16.9737 30.8022 17.595L30.9066 19.4571C30.9132 19.575 30.9923 19.6797 31.1093 19.7381C32.9921 20.6786 32.0204 21.9883 31.0577 22.4171C31.0681 22.7356 31.1014 23.3047 31.0866 23.3328C31.085 23.333 31.0843 23.3332 31.0847 23.3335C31.0854 23.334 31.086 23.3339 31.0866 23.3328C31.1664 23.3231 33.5512 23.4407 34.7659 23.4163L34.7389 22.4998C32.5855 20.8056 33.6615 19.8658 35.1727 19.9738V19.976H42.795V24.5275H35.7338V33.8768H29.1871L29 11.7749H43.2626Z" fill="#033051"/>
</g>
<defs>
<clipPath id="clip0_53_624">
<rect width="91" height="31" fill="white" transform="translate(29 3)"/>
</clipPath>
</defs>
</svg>
