<?xml version="1.0" encoding="UTF-8"?>
<svg xmlns="http://www.w3.org/2000/svg" xmlns:xlink="http://www.w3.org/1999/xlink" width="181px" height="45px" viewBox="0 0 181 45" version="1.1">
<defs>
<clipPath id="clip1">
  <path d="M 65 4 L 103 4 L 103 41.351562 L 65 41.351562 Z M 65 4 "/>
</clipPath>
<clipPath id="clip2">
  <path d="M 75 34 L 86 34 L 86 41.351562 L 75 41.351562 Z M 75 34 "/>
</clipPath>
<clipPath id="clip3">
  <path d="M 97 18 L 104 18 L 104 41.351562 L 97 41.351562 Z M 97 18 "/>
</clipPath>
<clipPath id="clip4">
  <path d="M 107 18 L 130 18 L 130 41.351562 L 107 41.351562 Z M 107 18 "/>
</clipPath>
<clipPath id="clip5">
  <path d="M 133 18 L 139 18 L 139 41.351562 L 133 41.351562 Z M 133 18 "/>
</clipPath>
<clipPath id="clip6">
  <path d="M 56 18 L 62 18 L 62 41.351562 L 56 41.351562 Z M 56 18 "/>
</clipPath>
<clipPath id="clip7">
  <path d="M 35.226562 14 L 53 14 L 53 41.351562 L 35.226562 41.351562 Z M 35.226562 14 "/>
</clipPath>
</defs>
<g id="surface1">
<g clip-path="url(#clip1)" clip-rule="nonzero">
<path style=" stroke:none;fill-rule:nonzero;fill:rgb(1.176471%,18.82353%,31.764707%);fill-opacity:1;" d="M 87.257812 9.535156 C 87.800781 4.203125 93.640625 3.90625 97.1875 4.644531 L 93.304688 8.691406 C 92.914062 11.703125 95.730469 12.265625 97.1875 12.167969 L 101.5 7.835938 C 104.683594 14.796875 98.601562 17.304688 94.671875 17.742188 L 94.488281 17.761719 L 85.511719 29.132812 L 95.226562 41.351562 L 88.183594 41.351562 L 80.285156 31.625 L 72.617188 41.351562 L 65.746094 41.25 L 74.550781 29.132812 L 66.085938 17.761719 L 72.617188 17.761719 L 80.285156 26.738281 L 88.238281 15.566406 C 87.550781 13.46875 87.117188 10.902344 87.257812 9.535156 Z M 87.257812 9.535156 "/>
</g>
<g clip-path="url(#clip2)" clip-rule="nonzero">
<path style=" stroke:none;fill-rule:nonzero;fill:rgb(1.176471%,18.82353%,31.764707%);fill-opacity:1;" d="M 85.625 41.203125 L 75.34375 41.203125 L 80.570312 34.570312 Z M 79.832031 38.160156 L 79.832031 39.65625 L 81.308594 39.65625 L 81.308594 38.160156 Z M 79.832031 38.160156 "/>
</g>
<g clip-path="url(#clip3)" clip-rule="nonzero">
<path style=" stroke:none;fill-rule:nonzero;fill:rgb(1.176471%,18.82353%,31.764707%);fill-opacity:1;" d="M 103.183594 41.351562 L 103.183594 18.511719 L 97.992188 18.511719 C 97.96875 26.125 97.929688 41.351562 97.992188 41.351562 Z M 103.183594 41.351562 "/>
</g>
<g clip-path="url(#clip4)" clip-rule="nonzero">
<path style=" stroke:none;fill-rule:nonzero;fill:rgb(1.568628%,18.82353%,32.156864%);fill-opacity:1;" d="M 116.886719 41.351562 L 107.804688 41.351562 L 107.804688 18.855469 L 116.953125 18.855469 C 119.535156 18.855469 121.753906 19.308594 123.609375 20.214844 C 125.46875 21.109375 126.894531 22.398438 127.894531 24.078125 C 128.902344 25.75 129.40625 27.753906 129.40625 30.089844 C 129.40625 32.433594 128.902344 34.445312 127.894531 36.128906 C 126.894531 37.808594 125.460938 39.101562 123.59375 40.007812 C 121.722656 40.902344 119.488281 41.351562 116.886719 41.351562 Z M 113.207031 37.273438 L 116.644531 37.273438 C 119.066406 37.273438 120.898438 36.707031 122.148438 35.570312 C 123.398438 34.429688 124.023438 32.605469 124.023438 30.089844 C 124.023438 27.59375 123.398438 25.777344 122.148438 24.636719 C 120.898438 23.5 119.066406 22.933594 116.644531 22.933594 L 113.207031 22.933594 Z M 113.207031 37.273438 "/>
</g>
<g clip-path="url(#clip5)" clip-rule="nonzero">
<path style=" stroke:none;fill-rule:nonzero;fill:rgb(1.176471%,18.82353%,31.764707%);fill-opacity:1;" d="M 138.859375 41.351562 L 138.859375 18.511719 L 133.667969 18.511719 C 133.640625 26.125 133.601562 41.351562 133.667969 41.351562 Z M 138.859375 41.351562 "/>
</g>
<g clip-path="url(#clip6)" clip-rule="nonzero">
<path style=" stroke:none;fill-rule:nonzero;fill:rgb(1.176471%,18.82353%,31.764707%);fill-opacity:1;" d="M 61.8125 41.351562 L 61.8125 18.511719 L 56.621094 18.511719 C 56.59375 26.125 56.558594 41.351562 56.621094 41.351562 Z M 61.8125 41.351562 "/>
</g>
<g clip-path="url(#clip7)" clip-rule="nonzero">
<path style=" stroke:none;fill-rule:nonzero;fill:rgb(1.176471%,18.82353%,31.764707%);fill-opacity:1;" d="M 52.554688 14.320312 L 52.554688 20.953125 L 40.566406 20.953125 C 39.5 20.359375 40.902344 16.894531 41.742188 15.152344 C 38.21875 18.082031 37.394531 20.644531 37.417969 21.398438 L 37.542969 23.664062 C 37.550781 23.808594 37.648438 23.933594 37.789062 24.003906 C 40.078125 25.148438 38.898438 26.742188 37.726562 27.265625 C 37.742188 27.652344 37.78125 28.34375 37.761719 28.378906 C 37.859375 28.367188 40.757812 28.507812 42.230469 28.480469 L 42.199219 27.363281 C 39.582031 25.304688 40.890625 24.160156 42.726562 24.292969 L 42.726562 24.296875 L 51.984375 24.296875 L 51.984375 29.832031 L 43.40625 29.832031 L 43.40625 41.203125 L 35.457031 41.203125 L 35.226562 14.320312 Z M 52.554688 14.320312 "/>
</g>
</g>
</svg>
