<?xml version="1.0" encoding="UTF-8"?>
<svg xmlns="http://www.w3.org/2000/svg" xmlns:xlink="http://www.w3.org/1999/xlink" width="605px" height="581px" viewBox="0 0 604 581" version="1.1">
<g id="surface1">
<path style=" stroke:none;fill-rule:nonzero;fill:rgb(1.176471%,18.82353%,31.764707%);fill-opacity:1;" d="M 380.726562 151.195312 L 380.726562 219.941406 L 271.800781 219.941406 C 262.101562 213.800781 274.851562 177.855469 282.484375 159.8125 C 250.457031 190.191406 242.957031 216.730469 243.167969 224.5625 L 244.320312 248.035156 C 244.394531 249.519531 245.269531 250.839844 246.558594 251.578125 C 267.34375 263.433594 256.617188 279.941406 245.988281 285.347656 C 246.105469 289.363281 246.472656 296.535156 246.308594 296.890625 C 246.289062 296.894531 246.285156 296.894531 246.289062 296.898438 C 246.296875 296.90625 246.300781 296.90625 246.308594 296.890625 C 247.191406 296.769531 273.515625 298.25 286.925781 297.945312 L 286.628906 286.390625 C 262.855469 265.03125 274.734375 253.1875 291.417969 254.546875 L 291.417969 254.574219 L 375.5625 254.574219 L 375.5625 311.953125 L 297.613281 311.953125 L 297.613281 429.804688 L 225.339844 429.804688 L 223.273438 151.195312 Z M 380.726562 151.195312 "/>
</g>
</svg>
